# xmcd
#
# Track frame offsets:
#	150
#	13603
#	30730
#	55764
#	86703
#	105773
#	130012
#	150463
#	166961
#	184593
#	204425
#	224302
#	245065
#	258254
#	276674
#	297165
#	314862
#
# Disc length: 4431 seconds
#
# Revision: 1
# Processed by: cddbd v1.4PL0 Copyright (c) Steve Scherf et al.
# Submitted via: audiograbber 1.82.02
#
DISCID=f0114d11
DTITLE=Tom Waits - Unknown
DYEAR=1900
DGENRE=Blues
TTITLE0=Lowside Of The Road
TTITLE1=Clap Hands
TTITLE2=Hold On
TTITLE3=Get Behind The Mule
TTITLE4=House Where Nobody Lives
TTITLE5=Cold Water
TTITLE6=Pony
TTITLE7=Picture In A Frame
TTITLE8=Chocolate Jesus
TTITLE9=Georgia Lee
TTITLE10=Take It With Me
TTITLE11=Come On Up To The House
TTITLE12=November
TTITLE13=Little Drop Of Poison
TTITLE14=16 Shells From A Thirty Ought Six
TTITLE15=Good Old World (Waltz)
TTITLE16=Time
EXTD=
EXTT0=
EXTT1=
EXTT2=
EXTT3=
EXTT4=
EXTT5=
EXTT6=
EXTT7=
EXTT8=
EXTT9=
EXTT10=
EXTT11=
EXTT12=
EXTT13=
EXTT14=
EXTT15=
EXTT16=
PLAYORDER=
